<svg xmlns="http://www.w3.org/2000/svg" viewBox="0 0 640 360">
  <!-- Background -->
  <rect width="640" height="360" rx="0" fill="#059669"/>
  <!-- Subtle pattern circles -->
  <circle cx="100" cy="80" r="120" fill="#047857" opacity="0.3"/>
  <circle cx="540" cy="280" r="150" fill="#047857" opacity="0.3"/>
  <!-- Chat bubble icon (from chattyfoods favicon) -->
  <g transform="translate(258, 80) scale(3.5)">
    <path d="M2 5a4 4 0 014-4h20a4 4 0 014 4v14a4 4 0 01-4 4H14l-6 8v-8H6a4 4 0 01-4-4V5z" fill="white" opacity="0.9"/>
    <g stroke="#059669" stroke-width="2" stroke-linecap="round" fill="none">
      <path d="M13 7v5"/>
      <path d="M16 7v5"/>
      <path d="M19 7v5"/>
      <path d="M13 12c0 1.7 1.3 3 3 3"/>
      <path d="M19 12c0 1.7-1.3 3-3 3"/>
      <path d="M16 15v4"/>
    </g>
  </g>
  <!-- Text -->
  <text x="320" y="290" text-anchor="middle" font-family="system-ui, sans-serif" font-weight="700" font-size="36" fill="white">Chatty Foods</text>
  <text x="320" y="320" text-anchor="middle" font-family="system-ui, sans-serif" font-weight="400" font-size="14" fill="white" opacity="0.7">Recipes &amp; tips from AI conversations</text>
</svg>
